<svg xmlns="http://www.w3.org/2000/svg" viewBox="0 0 512 512" role="img" aria-labelledby="title desc">
  <title id="title">py-Slingshot sticker</title>
  <desc id="desc">OmicVerse repository hex sticker for py-Slingshot.</desc>
  <defs>
    <linearGradient id="bg" x1="112" y1="90" x2="398" y2="430" gradientUnits="userSpaceOnUse">
      <stop offset="0" stop-color="#050706"/>
      <stop offset=".58" stop-color="#020403"/>
      <stop offset="1" stop-color="#000000"/>
    </linearGradient>
  </defs>
  <polygon points="256,34 450,146 450,368 256,480 62,368 62,146" fill="#000000" opacity=".34"/>
  <polygon points="256,22 458,139 458,373 256,490 54,373 54,139" fill="url(#bg)" stroke="#0B0F0A" stroke-width="19" stroke-linejoin="round"/>
  <polygon points="256,22 458,139 458,373 256,490 54,373 54,139" fill="none" stroke="#E8FFE0" stroke-width="12" stroke-linejoin="round"/>
  <g opacity=".22" stroke="#3FD36B" stroke-width="2.2">
    <path d="M112 166h288M100 222h312M100 278h312M112 334h288"/>
    <path d="M152 126v236M204 104v274M256 96v286M308 104v274M360 126v236"/>
  </g>
  <g id="motif">
    <path d="M178 154l78 92 78-92" fill="none" stroke="#FFFFFF" stroke-width="11" stroke-linecap="round" stroke-linejoin="round"/>
    <path d="M256 246v112" stroke="#FFFFFF" stroke-width="11" stroke-linecap="round"/>
    <path d="M184 184c52 58 94 58 144 0" fill="none" stroke="#FFD60A" stroke-width="8" stroke-linecap="round"/>
    <path d="M158 320c76-72 146-80 220-28" fill="none" stroke="#32D74B" stroke-width="8" stroke-linecap="round"/>
    <circle cx="184" cy="184" r="13" fill="#FF6961"/><circle cx="328" cy="184" r="13" fill="#00C7BE"/><circle cx="256" cy="302" r="14" fill="#FFD60A"/>
  </g>
  <path id="label" d="M306.14,381.66 L311.31,390.61 L305.86,393.76 L292.27,370.22 L297.72,367.08 L299.16,369.57 Q299.43,367.43 300.39,365.93 Q301.35,364.44 303.13,363.41 Q306.28,361.59 309.75,362.92 Q313.22,364.26 315.50,368.20 Q317.77,372.14 317.20,375.82 Q316.62,379.49 313.47,381.31 Q311.69,382.34 309.91,382.42 Q308.13,382.50 306.14,381.66 Z M303.39,368.53 Q301.64,369.54 301.44,371.37 Q301.25,373.20 302.65,375.62 Q304.05,378.04 305.72,378.79 Q307.41,379.53 309.16,378.52 Q310.90,377.51 311.09,375.70 Q311.27,373.89 309.87,371.45 Q308.46,369.01 306.80,368.27 Q305.14,367.52 303.39,368.53 Z M312.35,358.63 L317.80,355.48 L329.06,364.41 L326.28,350.59 L331.73,347.44 L335.33,370.25 Q335.90,373.72 335.11,375.68 Q334.33,377.64 331.97,379.01 L328.82,380.83 L326.75,377.25 L328.46,376.27 Q329.84,375.47 330.22,374.66 Q330.60,373.86 330.29,372.51 L330.17,371.95 L312.35,358.63 Z M337.37,352.00 L346.92,346.48 L349.48,350.91 L339.92,356.43 L337.37,352.00 Z M361.48,330.98 L363.87,335.12 Q361.70,335.40 359.85,335.97 Q358.02,336.55 356.57,337.38 Q355.01,338.28 354.48,339.10 Q353.96,339.93 354.42,340.73 Q354.80,341.39 355.58,341.41 Q356.35,341.43 357.92,340.75 L358.96,340.33 Q363.45,338.44 365.60,338.83 Q367.75,339.21 369.25,341.81 Q370.83,344.54 369.61,347.07 Q368.39,349.60 364.41,351.90 Q362.72,352.88 360.75,353.65 Q358.80,354.42 356.59,354.99 L354.19,350.85 Q356.28,350.70 358.22,350.11 Q360.17,349.52 361.93,348.50 Q363.53,347.57 364.08,346.67 Q364.63,345.76 364.13,344.89 Q363.71,344.16 362.95,344.12 Q362.19,344.09 360.41,344.85 L359.38,345.28 Q355.48,346.92 353.31,346.53 Q351.13,346.14 349.68,343.63 Q348.12,340.92 349.22,338.55 Q350.32,336.16 354.16,333.95 Q355.67,333.08 357.46,332.35 Q359.25,331.61 361.48,330.98 Z M362.58,320.78 L368.02,317.64 L381.70,341.33 L376.25,344.47 L362.58,320.78 Z M377.10,321.25 L382.54,318.11 L392.39,335.16 L386.94,338.30 L377.10,321.25 Z M373.26,314.61 L378.71,311.47 L381.28,315.91 L375.83,319.06 L373.26,314.61 Z M408.77,311.85 L414.76,322.24 L409.28,325.40 L408.31,323.71 L404.70,317.45 Q403.42,315.25 402.84,314.47 Q402.26,313.68 401.79,313.43 Q401.16,313.08 400.44,313.10 Q399.72,313.12 399.02,313.52 Q397.31,314.51 397.10,316.39 Q396.88,318.27 398.23,320.60 L403.07,328.99 L397.63,332.13 L387.78,315.08 L393.23,311.94 L394.67,314.43 Q395.04,312.23 396.02,310.72 Q397.00,309.21 398.67,308.25 Q401.62,306.54 404.20,307.47 Q406.77,308.40 408.77,311.85 Z M429.75,309.73 Q429.48,311.87 428.53,313.35 Q427.58,314.84 425.80,315.86 Q422.68,317.66 419.22,316.39 Q415.77,315.10 413.57,311.29 Q411.36,307.47 411.99,303.86 Q412.62,300.23 415.74,298.43 Q417.52,297.41 419.28,297.33 Q421.04,297.24 423.04,298.10 L421.58,295.57 L427.06,292.41 L435.91,307.74 Q438.28,311.85 436.94,315.51 Q435.59,319.18 430.66,322.03 Q429.06,322.95 427.43,323.57 Q425.80,324.19 424.00,324.55 L421.55,320.31 Q423.45,320.30 425.05,319.92 Q426.66,319.53 428.04,318.73 Q430.72,317.18 431.29,315.29 Q431.87,313.39 430.43,310.90 L429.75,309.73 Z M420.03,301.19 Q418.34,302.17 418.12,303.96 Q417.90,305.75 419.21,308.03 Q420.57,310.38 422.18,311.06 Q423.79,311.74 425.54,310.73 Q427.24,309.75 427.47,307.96 Q427.69,306.16 426.38,303.89 Q425.07,301.61 423.40,300.91 Q421.73,300.21 420.03,301.19 Z" fill="#FFFFFF"/>
</svg>
